<?xml version="1.0" encoding="UTF-8" standalone="no"?>
<!DOCTYPE svg PUBLIC "-//W3C//DTD SVG 1.1//EN"
 "http://www.w3.org/Graphics/SVG/1.1/DTD/svg11.dtd">
<!-- Generated by graphviz version 2.36.0 (20140111.2315)
 -->
<!-- Title: %3 Pages: 1 -->
<svg width="596pt" height="210pt"
 viewBox="0.00 0.00 596.00 210.00" xmlns="http://www.w3.org/2000/svg" xmlns:xlink="http://www.w3.org/1999/xlink">
<g id="graph0" class="graph" transform="scale(1 1) rotate(0) translate(4 206)">
<title>%3</title>
<polygon fill="white" stroke="none" points="-4,4 -4,-206 592,-206 592,4 -4,4"/>
<!-- commit -->
<g id="node1" class="node"><title>commit</title>
<polygon fill="none" stroke="black" points="435,-202 153,-202 153,-164 435,-164 435,-202"/>
<text text-anchor="middle" x="294" y="-186.8" font-family="Times,serif" font-size="14.00">commit</text>
<text text-anchor="middle" x="294" y="-171.8" font-family="Times,serif" font-size="14.00">05793d792a9963c468b5ffeec7b9b2c4e45c92fe</text>
</g>
<!-- tree -->
<g id="node2" class="node"><title>tree</title>
<polygon fill="none" stroke="black" points="436,-128 152,-128 152,-90 436,-90 436,-128"/>
<text text-anchor="middle" x="294" y="-112.8" font-family="Times,serif" font-size="14.00">tree</text>
<text text-anchor="middle" x="294" y="-97.8" font-family="Times,serif" font-size="14.00">49d65379637d5c99dc1147e77f7f0f7562ac89ce</text>
</g>
<!-- commit&#45;&gt;tree -->
<g id="edge1" class="edge"><title>commit&#45;&gt;tree</title>
<path fill="none" stroke="black" d="M294,-163.831C294,-156.131 294,-146.974 294,-138.417"/>
<polygon fill="black" stroke="black" points="297.5,-138.413 294,-128.413 290.5,-138.413 297.5,-138.413"/>
</g>
<!-- doc -->
<g id="node3" class="node"><title>doc</title>
<polygon fill="none" stroke="black" points="286,-53.5 0,-53.5 0,-0.5 286,-0.5 286,-53.5"/>
<text text-anchor="middle" x="143" y="-38.3" font-family="Times,serif" font-size="14.00">blob</text>
<text text-anchor="middle" x="143" y="-23.3" font-family="Times,serif" font-size="14.00">99bb525dcdf3258670ce9c76b30804fab37cc8d3</text>
<text text-anchor="middle" x="143" y="-8.3" font-family="Times,serif" font-size="14.00">what&#45;is&#45;git&#45;lightning.html</text>
</g>
<!-- tree&#45;&gt;doc -->
<g id="edge2" class="edge"><title>tree&#45;&gt;doc</title>
<path fill="none" stroke="black" d="M259.736,-89.8468C242.154,-80.532 220.269,-68.9372 200.215,-58.3126"/>
<polygon fill="black" stroke="black" points="201.627,-55.0998 191.152,-53.511 198.35,-61.2853 201.627,-55.0998"/>
</g>
<!-- runbook -->
<g id="node4" class="node"><title>runbook</title>
<polygon fill="none" stroke="black" points="588,-53.5 304,-53.5 304,-0.5 588,-0.5 588,-53.5"/>
<text text-anchor="middle" x="446" y="-38.3" font-family="Times,serif" font-size="14.00">blob</text>
<text text-anchor="middle" x="446" y="-23.3" font-family="Times,serif" font-size="14.00">a8ac272570a08c07e3ba96ef41822eab86abc9e9</text>
<text text-anchor="middle" x="446" y="-8.3" font-family="Times,serif" font-size="14.00">runbook</text>
</g>
<!-- tree&#45;&gt;runbook -->
<g id="edge3" class="edge"><title>tree&#45;&gt;runbook</title>
<path fill="none" stroke="black" d="M328.491,-89.8468C346.269,-80.49 368.418,-68.8327 388.679,-58.1691"/>
<polygon fill="black" stroke="black" points="390.31,-61.2657 397.529,-53.511 387.05,-55.0713 390.31,-61.2657"/>
</g>
</g>
</svg>
